<?xml version="1.0"?>
<svg version="1.1" xmlns="http://www.w3.org/2000/svg" width="200" height="40" style=""><path fill="#1f87d1" d="M15.74462890625,30.1806640625q0-0.42724609375,0.29296875-0.543212890625t0.634765625-0.115966796875q0.59814453125,0,1.01318359375,0.537109375t0.787353515625,1.177978515625t0.738525390625,1.177978515625t0.86669921875,0.537109375q0.37841796875,0,0.689697265625-0.189208984375t0.537109375-0.47607421875t0.347900390625-0.64697265625t0.1220703125-0.714111328125q0-0.927734375-0.372314453125-1.91650390625t-0.9521484375-2.03857421875t-1.226806640625-2.1484375t-1.220703125-2.23388671875t-0.9521484375-2.313232421875t-0.37841796875-2.374267578125q0-1.79443359375,1.07421875-2.783203125t2.83203125-0.98876953125q0.59814453125,0,1.20849609375,0.1708984375t1.123046875,0.5126953125t0.836181640625,0.84228515625t0.323486328125,1.171875q0,0.2197265625-0.323486328125,0.286865234375t-0.469970703125,0.067138671875q-0.2197265625,0-0.47607421875-0.054931640625t-0.32958984375-0.299072265625t-0.20751953125-0.5615234375t-0.335693359375-0.592041015625t-0.47607421875-0.47607421875t-0.604248046875-0.201416015625q-0.54931640625,0-0.933837890625,0.225830078125t-0.62255859375,0.604248046875t-0.35400390625,0.848388671875t-0.115966796875,0.970458984375q0,1.171875,0.40283203125,2.362060546875t1.0009765625,2.3681640625t1.300048828125,2.325439453125t1.300048828125,2.23388671875t1.0009765625,2.1240234375t0.40283203125,1.96533203125q0,0.830078125-0.390625,1.40380859375t-0.98876953125,0.933837890625t-1.324462890625,0.52490234375t-1.422119140625,0.164794921875q-0.74462890625,0-1.52587890625-0.299072265625t-1.40380859375-0.823974609375t-1.025390625-1.226806640625t-0.40283203125-1.519775390625z M26.726928710938,27.94677734375q0-0.830078125,0.225830078125-1.59912109375t0.677490234375-1.373291015625t1.129150390625-0.96435546875t1.568603515625-0.360107421875q0.54931640625,0,1.214599609375,0.164794921875t1.251220703125,0.48828125t0.9765625,0.823974609375t0.390625,1.1474609375q0,0.30517578125-0.103759765625,0.4638671875t-0.421142578125,0.15869140625l-0.13427734375-0.0244140625q0.35400390625,0.9521484375,0.6103515625,1.953125t0.50048828125,2.001953125q0.09765625,0.1953125,0.146484375,0.347900390625t0.048828125,0.299072265625q0,0.1953125-0.10986328125,0.323486328125t-0.286865234375,0.189208984375t-0.3662109375,0.08544921875t-0.335693359375,0.0244140625q-0.52490234375,0-0.787353515625-0.18310546875t-0.37841796875-0.50048828125t-0.140380859375-0.714111328125t-0.09765625-0.799560546875q-0.146484375,0.47607421875-0.384521484375,0.927734375t-0.5615234375,0.811767578125t-0.762939453125,0.57373046875t-0.98876953125,0.213623046875q-0.8056640625,0-1.35498046875-0.4638671875t-0.885009765625-1.141357421875t-0.48828125-1.446533203125t-0.152587890625-1.42822265625z M28.460327148438,27.77587890625q0,0.45166015625,0.06103515625,0.9521484375t0.201416015625,0.98876953125t0.360107421875,0.921630859375t0.54931640625,0.762939453125q0.59814453125-0.64697265625,0.885009765625-1.57470703125t0.5126953125-1.788330078125t0.5126953125-1.47705078125t0.885009765625-0.616455078125q0.37841796875,0,0.634765625,0.13427734375q-0.1220703125-0.30517578125-0.40283203125-0.592041015625t-0.628662109375-0.52490234375t-0.72021484375-0.390625t-0.701904296875-0.152587890625q-0.09765625,0-0.225830078125,0.030517578125t-0.201416015625,0.006103515625q-0.50048828125,0.146484375-0.823974609375,0.506591796875t-0.52490234375,0.848388671875t-0.286865234375,1.0009765625t-0.08544921875,0.96435546875z M37.306396484375,27.70263671875q0-0.87890625,0.225830078125-1.763916015625t0.701904296875-1.5869140625t1.214599609375-1.141357421875t1.739501953125-0.439453125q0.42724609375,0,0.93994140625,0.103759765625t0.946044921875,0.32958984375t0.732421875,0.5859375t0.299072265625,0.885009765625q0,0.32958984375-0.1708984375,0.439453125t-0.45166015625,0.10986328125l-0.08544921875-0.1220703125t-0.238037109375-0.311279296875t-0.323486328125-0.40283203125t-0.32958984375-0.360107421875q-0.50048828125-0.50048828125-0.93994140625-0.537109375l-0.09765625,0q-0.3662109375,0-0.68359375,0.2197265625q-0.35400390625,0.2685546875-0.628662109375,0.7568359375t-0.457763671875,1.03759765625t-0.286865234375,1.11083984375t-0.103759765625,0.927734375q0,0.50048828125,0.115966796875,1.141357421875t0.390625,1.214599609375t0.69580078125,0.96435546875t1.080322265625,0.390625q0.59814453125,0,1.08642578125-0.29296875t0.933837890625-0.653076171875t0.872802734375-0.64697265625t0.87890625-0.286865234375q0.1953125,0,0.396728515625,0.048828125t0.201416015625,0.25634765625l0,0.0732421875q-0.2197265625,0.57373046875-0.74462890625,1.01318359375t-1.177978515625,0.762939453125t-1.35498046875,0.482177734375t-1.251220703125,0.15869140625q-1.025390625,0-1.800537109375-0.335693359375t-1.287841796875-0.921630859375t-0.775146484375-1.409912109375t-0.262451171875-1.800537109375z M47.959106445312,29.27734375l0-1.1474609375q0-0.62255859375,0.030517578125-1.763916015625t0.079345703125-2.50244140625t0.13427734375-2.838134765625t0.1953125-2.789306640625t0.262451171875-2.349853515625t0.347900390625-1.5380859375q0.1220703125-0.28076171875,0.40283203125-0.35400390625t0.54931640625-0.0732421875q0.42724609375,0,0.750732421875,0.189208984375t0.323486328125,0.689697265625l-0.2197265625,0.244140625q-0.42724609375,2.81982421875-0.54931640625,5.6640625t-0.1708984375,5.6884765625q0.30517578125-0.47607421875,0.689697265625-0.933837890625t0.8544921875-0.811767578125t1.01318359375-0.567626953125t1.190185546875-0.213623046875q0.830078125,0,1.373291015625,0.50048828125t0.897216796875,1.300048828125t0.52490234375,1.788330078125t0.262451171875,1.9775390625t0.128173828125,1.873779296875t0.10986328125,1.470947265625q-0.23193359375,0.3173828125-0.68359375,0.3173828125l-0.03662109375,0q-0.1953125,0-0.42724609375-0.048828125t-0.30517578125-0.244140625l0.0244140625,0.0244140625q-0.1708984375-0.37841796875-0.23193359375-1.092529296875t-0.09765625-1.57470703125t-0.128173828125-1.763916015625t-0.274658203125-1.6357421875t-0.537109375-1.20849609375t-0.9521484375-0.50048828125l-0.0732421875,0q-0.72021484375,0-1.20849609375,0.439453125q-0.5126953125,0.4638671875-0.830078125,1.220703125t-0.48828125,1.6845703125t-0.262451171875,1.788330078125t-0.140380859375,1.5625t-0.1220703125,1.031494140625q-0.0732421875,0.28076171875-0.433349609375,0.372314453125t-0.616455078125,0.091552734375q-0.59814453125,0-0.9765625-0.341796875q-0.28076171875-0.67138671875-0.32958984375-1.67236328125t-0.048828125-1.953125z M59.63720703125,27.65380859375q0-1.123046875,0.262451171875-2.203369140625t0.445556640625-2.154541015625q0.048828125-0.28076171875,0.384521484375-0.347900390625t0.567626953125-0.067138671875q0.40283203125,0,0.64697265625,0.1220703125q0.09765625,0.048828125,0.18310546875,0.10986328125t0.08544921875,0.15869140625q0,1.0498046875-0.250244140625,2.05078125t-0.250244140625,2.1240234375q0,0.37841796875,0.054931640625,0.714111328125t0.103759765625,0.665283203125l0.0732421875,0.35400390625q0,0.09765625,0.01220703125,0.1708984375t0.03662109375,0.1708984375q0,0.2197265625-0.311279296875,0.299072265625t-0.543212890625,0.079345703125q-0.35400390625,0-0.653076171875-0.140380859375t-0.469970703125-0.482177734375l-0.1708984375-0.35400390625q-0.146484375-0.28076171875-0.146484375-0.628662109375t-0.06103515625-0.640869140625z M60.41845703125,20.30517578125l0-0.23193359375q0-0.57373046875,0.286865234375-1.025390625t0.860595703125-0.45166015625q0.0732421875,0,0.140380859375,0.01220703125t0.140380859375,0.01220703125q0.146484375,0.0244140625,0.384521484375,0.115966796875t0.238037109375,0.286865234375l0,0.0244140625q-0.048828125,0.09765625-0.06103515625,0.201416015625t-0.06103515625,0.177001953125l0.0244140625-0.0244140625q-0.146484375,0.37841796875-0.238037109375,0.6103515625t-0.201416015625,0.372314453125t-0.274658203125,0.201416015625t-0.469970703125,0.06103515625q-0.048828125,0-0.1708984375-0.01220703125t-0.262451171875-0.048828125t-0.238037109375-0.09765625t-0.09765625-0.18310546875z M64.979858398438,28.0078125l0-0.35400390625q0-0.439453125,0.0244140625-0.830078125q0.0244140625-0.54931640625,0.0244140625-0.9033203125q0-0.1953125,0.0244140625-0.445556640625t0.1220703125-0.396728515625q0.1220703125-0.1220703125,0.286865234375-0.250244140625t0.360107421875-0.128173828125q0.62255859375,0,0.9765625,0.140380859375t0.37841796875,0.579833984375l0.048828125,0.37841796875q0.2197265625-0.52490234375,0.5859375-1.300048828125t0.848388671875-1.47705078125t1.08642578125-1.1962890625t1.275634765625-0.494384765625q0.62255859375,0,1.025390625,0.5859375t0.640869140625,1.495361328125t0.335693359375,2.0263671875t0.13427734375,2.191162109375t0.048828125,1.959228515625t0.08544921875,1.336669921875q0.048828125,0.37841796875,0.164794921875,0.799560546875t0.115966796875,0.775146484375q0,0.09765625-0.140380859375,0.189208984375t-0.299072265625,0.152587890625t-0.323486328125,0.09765625t-0.238037109375,0.03662109375q-0.47607421875,0-0.677490234375-0.714111328125t-0.250244140625-1.788330078125t-0.048828125-2.325439453125t-0.08544921875-2.325439453125t-0.347900390625-1.788330078125t-0.836181640625-0.738525390625q-0.52490234375,0-1.08642578125,0.677490234375t-0.96435546875,1.800537109375q-0.390625,1.123046875-0.537109375,2.55126953125q-0.048828125,0.45166015625-0.048828125,0.9033203125q0,0.98876953125,0.20751953125,1.9775390625q0.0244140625,0.1708984375-0.140380859375,0.25634765625t-0.408935546875,0.13427734375t-0.494384765625,0.06103515625t-0.384521484375,0.01220703125q-0.47607421875,0-0.762939453125-0.335693359375t-0.445556640625-0.860595703125t-0.213623046875-1.177978515625t-0.067138671875-1.287841796875z M80.828735351562,32.90283203125l0.25634765625-0.30517578125q-0.048828125-2.05078125-0.10986328125-4.08935546875t-0.06103515625-4.052734375q0-2.50244140625,0.299072265625-4.840087890625t0.592041015625-4.791259765625q0.0244140625-0.146484375,0.140380859375-0.238037109375t0.286865234375-0.152587890625t0.347900390625-0.08544921875t0.323486328125-0.0244140625q0.1953125,0,0.48828125,0.0732421875t0.5859375,0.42724609375q0,0.1220703125,0.018310546875,0.213623046875t0.018310546875,0.213623046875q0,0.927734375-0.250244140625,1.98974609375t-0.335693359375,2.03857421875q-0.09765625,1.1962890625-0.13427734375,2.3681640625t-0.03662109375,2.38037109375l0.0244140625,1.07421875q0.244140625-0.30517578125,0.69580078125-0.78125t0.9765625-0.921630859375t1.0498046875-0.762939453125t0.9521484375-0.3173828125q0.64697265625,0,0.897216796875,0.3662109375t0.250244140625,0.96435546875q0,0.54931640625-0.238037109375,1.1474609375t-0.62255859375,1.165771484375t-0.872802734375,1.019287109375t-0.96435546875,0.67138671875q0.64697265625,0.8056640625,1.324462890625,1.5380859375t1.483154296875,1.37939453125l0,0.28076171875q-0.0244140625,0.1220703125-0.152587890625,0.18310546875t-0.28076171875,0.09765625t-0.299072265625,0.054931640625t-0.244140625,0.018310546875q-0.59814453125,0-1.153564453125-0.35400390625t-1.03759765625-0.86669921875t-0.909423828125-1.08642578125t-0.78125-1.0009765625q0.0732421875,1.40380859375,0.164794921875,2.801513671875t0.091552734375,2.801513671875q0,0.1708984375-0.152587890625,0.286865234375t-0.35400390625,0.177001953125t-0.408935546875,0.08544921875t-0.341796875,0.0244140625q-0.72021484375,0-1.019287109375-0.262451171875t-0.506591796875-0.909423828125z M83.331176757812,27.1533203125q0.30517578125,0,0.726318359375-0.262451171875t0.872802734375-0.653076171875t0.84228515625-0.823974609375t0.628662109375-0.823974609375t0.238037109375-0.628662109375t-0.32958984375-0.213623046875q-0.1220703125,0-0.50048828125,0.35400390625t-0.84228515625,0.86669921875t-0.927734375,1.11083984375t-0.7080078125,1.07421875z M90.2119140625,26.87255859375q0-0.244140625,0.054931640625-0.64697265625t0.128173828125-0.799560546875t0.1708984375-0.738525390625t0.23193359375-0.439453125q0.09765625-0.09765625,0.335693359375-0.1953125t0.50048828125-0.140380859375t0.48828125,0.03662109375t0.274658203125,0.323486328125q-0.1708984375,0.2197265625-0.311279296875,0.750732421875t-0.213623046875,1.177978515625q-0.06103515625,0.54931640625-0.06103515625,1.13525390625l0,0.20751953125q0.01220703125,0.68359375,0.1220703125,1.25732421875t0.335693359375,0.946044921875t0.628662109375,0.372314453125q0.8544921875,0,1.5625-0.787353515625t1.25732421875-1.922607421875t0.96435546875-2.410888671875t0.7080078125-2.227783203125q0.0732421875-0.28076171875,0.347900390625-0.37841796875t0.592041015625-0.067138671875t0.567626953125,0.152587890625t0.299072265625,0.29296875q-0.244140625,2.05078125-0.384521484375,4.1015625t-0.140380859375,4.1259765625q0,0.40283203125,0.03662109375,0.738525390625t-0.03662109375,0.57373046875t-0.323486328125,0.37841796875t-0.799560546875,0.140380859375q-0.1220703125,0-0.311279296875-0.0244140625t-0.390625-0.079345703125t-0.341796875-0.164794921875t-0.140380859375-0.25634765625q0-0.9033203125,0.067138671875-1.85546875t0.189208984375-1.84326171875q-0.32958984375,0.47607421875-0.726318359375,0.946044921875t-0.872802734375,0.848388671875t-1.025390625,0.604248046875t-1.18408203125,0.225830078125q-0.9033203125,0-1.422119140625-0.42724609375t-0.78125-1.068115234375t-0.32958984375-1.397705078125t-0.067138671875-1.46484375z M101.72521972656,24.888916015625q-0.030517578125-0.408935546875,0.048828125-0.750732421875t0.3173828125-0.555419921875t0.762939453125-0.213623046875q0.1220703125,0,0.299072265625,0.030517578125t0.347900390625,0.079345703125t0.286865234375,0.146484375t0.115966796875,0.2685546875l0,1.37939453125q0.47607421875-0.54931640625,1.03759765625-0.787353515625t1.28173828125-0.238037109375q0.54931640625,0,1.08642578125,0.250244140625t1.01318359375,0.665283203125t0.823974609375,0.91552734375t0.506591796875,1.0009765625q0.09765625-0.45166015625,0.2197265625-1.104736328125t0.360107421875-1.251220703125t0.628662109375-1.025390625t1.03759765625-0.42724609375q0.69580078125,0,1.171875,0.50048828125t0.775146484375,1.300048828125t0.45166015625,1.788330078125t0.225830078125,1.953125t0.0732421875,1.800537109375l0,1.312255859375q0,0.146484375-0.10986328125,0.238037109375t-0.274658203125,0.140380859375t-0.341796875,0.06103515625t-0.274658203125,0.01220703125q-0.37841796875,0-0.689697265625-0.115966796875t-0.311279296875-0.592041015625l0-1.0986328125t-0.0244140625-1.422119140625t-0.08544921875-1.52587890625t-0.15869140625-1.385498046875t-0.250244140625-1.0009765625t-0.372314453125-0.390625q-0.30517578125,0-0.439453125,0.341796875t-0.225830078125,0.86669921875t-0.140380859375,1.11083984375t-0.13427734375,1.11083984375t-0.274658203125,0.860595703125t-0.518798828125,0.335693359375q-0.35400390625,0-0.62255859375-0.335693359375t-0.531005859375-0.836181640625t-0.52490234375-1.07421875t-0.579833984375-1.07421875q-0.3173828125-0.5126953125-0.68359375-0.830078125q-0.32958984375-0.30517578125-0.74462890625-0.29296875l-0.06103515625,0q-0.54931640625,0.0244140625-0.860595703125,0.396728515625t-0.47607421875,0.909423828125t-0.201416015625,1.153564453125t-0.03662109375,1.080322265625q0,0.439453125,0.0732421875,1.025390625q0.048828125,0.390625,0.048828125,0.74462890625q0,0.18310546875-0.01220703125,0.35400390625q-0.03662109375,0.5126953125-0.274658203125,0.860595703125t-0.885009765625,0.347900390625q-0.244140625,0-0.6103515625-0.048828125t-0.48828125-0.32958984375q-0.28076171875-0.50048828125-0.42724609375-1.263427734375t-0.2197265625-1.57470703125t-0.08544921875-1.611328125t-0.01220703125-1.373291015625q0-0.40283203125-0.030517578125-0.811767578125z M117.12036132812,27.94677734375q0-0.830078125,0.225830078125-1.59912109375t0.677490234375-1.373291015625t1.129150390625-0.96435546875t1.568603515625-0.360107421875q0.54931640625,0,1.214599609375,0.164794921875t1.251220703125,0.48828125t0.9765625,0.823974609375t0.390625,1.1474609375q0,0.30517578125-0.103759765625,0.4638671875t-0.421142578125,0.15869140625l-0.13427734375-0.0244140625q0.35400390625,0.9521484375,0.6103515625,1.953125t0.50048828125,2.001953125q0.09765625,0.1953125,0.146484375,0.347900390625t0.048828125,0.299072265625q0,0.1953125-0.10986328125,0.323486328125t-0.286865234375,0.189208984375t-0.3662109375,0.08544921875t-0.335693359375,0.0244140625q-0.52490234375,0-0.787353515625-0.18310546875t-0.37841796875-0.50048828125t-0.140380859375-0.714111328125t-0.09765625-0.799560546875q-0.146484375,0.47607421875-0.384521484375,0.927734375t-0.5615234375,0.811767578125t-0.762939453125,0.57373046875t-0.98876953125,0.213623046875q-0.8056640625,0-1.35498046875-0.4638671875t-0.885009765625-1.141357421875t-0.48828125-1.446533203125t-0.152587890625-1.42822265625z M118.85375976562,27.77587890625q0,0.45166015625,0.06103515625,0.9521484375t0.201416015625,0.98876953125t0.360107421875,0.921630859375t0.54931640625,0.762939453125q0.59814453125-0.64697265625,0.885009765625-1.57470703125t0.5126953125-1.788330078125t0.5126953125-1.47705078125t0.885009765625-0.616455078125q0.37841796875,0,0.634765625,0.13427734375q-0.1220703125-0.30517578125-0.40283203125-0.592041015625t-0.628662109375-0.52490234375t-0.72021484375-0.390625t-0.701904296875-0.152587890625q-0.09765625,0-0.225830078125,0.030517578125t-0.201416015625,0.006103515625q-0.50048828125,0.146484375-0.823974609375,0.506591796875t-0.52490234375,0.848388671875t-0.286865234375,1.0009765625t-0.08544921875,0.96435546875z M127.69982910156,24.52880859375q0-0.50048828125,0.177001953125-0.84228515625t0.750732421875-0.341796875q0.2197265625,0,0.54931640625,0.067138671875t0.37841796875,0.335693359375q0.1220703125,0.72021484375,0.13427734375,1.5625t0.08544921875,1.5869140625q0.28076171875-0.54931640625,0.72021484375-1.18408203125t1.0009765625-1.171875t1.220703125-0.89111328125t1.3427734375-0.35400390625q0.048828125,0,0.18310546875,0.03662109375t0.250244140625,0.103759765625t0.140380859375,0.152587890625t-0.13427734375,0.15869140625q-0.048828125,0.146484375-0.20751953125,0.177001953125t-0.28076171875,0.030517578125q-0.0732421875,0-0.23193359375-0.06103515625q-0.9033203125,0.47607421875-1.5380859375,1.2939453125t-1.03759765625,1.812744140625t-0.5859375,2.099609375t-0.18310546875,2.154541015625q0,0.52490234375-0.238037109375,0.634765625t-0.762939453125,0.10986328125q-0.28076171875,0-0.592041015625-0.06103515625t-0.433349609375-0.390625q-0.2197265625-0.69580078125-0.360107421875-1.59912109375t-0.213623046875-1.861572265625t-0.103759765625-1.885986328125t-0.030517578125-1.67236328125z"/><path fill="#" d=""/></svg>
